<mxfile modified="2022-05-24T08:19:02.952Z" host="app.diagrams.net" agent="5.0 (Windows NT 10.0; Win64; x64) AppleWebKit/537.36 (KHTML, like Gecko) Chrome/101.0.4951.67 Safari/537.36" etag="vACyecehMNiBSviYHZDI" version="18.0.7" type="github">
  <diagram id="f106602c-feb2-e66a-4537-3a34d633f6aa" name="Page-1">
    <mxGraphModel dx="1422" dy="705" grid="1" gridSize="10" guides="1" tooltips="1" connect="1" arrows="1" fold="1" page="1" pageScale="1" pageWidth="1169" pageHeight="827" background="#ffffff" math="0" shadow="0">
      <root>
        <mxCell id="0" />
        <mxCell id="1" parent="0" />
        <mxCell id="5Itg4eLvft31VcyqgWFJ-993" value="" style="rounded=0;whiteSpace=wrap;html=1;dashed=1;" parent="1" vertex="1">
          <mxGeometry x="660" y="200" width="490" height="220" as="geometry" />
        </mxCell>
        <mxCell id="SPJxlLECpX5JcZ-HkjWd-1064" style="edgeStyle=orthogonalEdgeStyle;rounded=0;orthogonalLoop=1;jettySize=auto;html=1;entryX=0;entryY=0.5;entryDx=0;entryDy=0;" parent="1" source="987" target="SPJxlLECpX5JcZ-HkjWd-1058" edge="1">
          <mxGeometry relative="1" as="geometry" />
        </mxCell>
        <mxCell id="987" value="" style="strokeColor=#dddddd;fillColor=#ffffff;shadow=1;strokeWidth=1;rounded=1;absoluteArcSize=1;arcSize=2;labelPosition=center;verticalLabelPosition=middle;align=center;verticalAlign=bottom;spacingLeft=0;fontColor=#999999;fontSize=12;whiteSpace=wrap;spacingBottom=2;html=1;" parent="1" vertex="1">
          <mxGeometry x="100" y="235" width="70" height="70" as="geometry" />
        </mxCell>
        <mxCell id="988" value="" style="dashed=0;connectable=0;html=1;fillColor=#757575;strokeColor=none;shape=mxgraph.gcp2.laptop;part=1;" parent="987" vertex="1">
          <mxGeometry x="0.5" width="50" height="33" relative="1" as="geometry">
            <mxPoint x="-25" y="18.5" as="offset" />
          </mxGeometry>
        </mxCell>
        <mxCell id="SPJxlLECpX5JcZ-HkjWd-1037" value="" style="strokeColor=#dddddd;shadow=1;strokeWidth=1;rounded=1;absoluteArcSize=1;arcSize=2;" parent="1" vertex="1">
          <mxGeometry x="960" y="230" width="100" height="60" as="geometry" />
        </mxCell>
        <mxCell id="SPJxlLECpX5JcZ-HkjWd-1038" value="Cloud&#xa;SQL" style="dashed=0;connectable=0;html=1;fillColor=#5184F3;strokeColor=none;shape=mxgraph.gcp2.hexIcon;prIcon=cloud_sql;part=1;labelPosition=right;verticalLabelPosition=middle;align=left;verticalAlign=middle;spacingLeft=5;fontColor=#999999;fontSize=12;" parent="SPJxlLECpX5JcZ-HkjWd-1037" vertex="1">
          <mxGeometry y="0.5" width="44" height="39" relative="1" as="geometry">
            <mxPoint x="5" y="-19.5" as="offset" />
          </mxGeometry>
        </mxCell>
        <mxCell id="SPJxlLECpX5JcZ-HkjWd-1052" style="edgeStyle=orthogonalEdgeStyle;rounded=0;orthogonalLoop=1;jettySize=auto;html=1;exitX=1;exitY=0.5;exitDx=0;exitDy=0;entryX=0.341;entryY=1;entryDx=0;entryDy=0;entryPerimeter=0;" parent="1" source="SPJxlLECpX5JcZ-HkjWd-1043" target="EJewP5QsWW_fbqRGyngx-990" edge="1">
          <mxGeometry relative="1" as="geometry">
            <mxPoint x="790" y="300" as="targetPoint" />
          </mxGeometry>
        </mxCell>
        <mxCell id="l3itrEJ3SxEkXiA3F_dx-989" style="edgeStyle=orthogonalEdgeStyle;rounded=0;orthogonalLoop=1;jettySize=auto;html=1;entryX=0.3;entryY=1.05;entryDx=0;entryDy=0;entryPerimeter=0;" parent="1" source="SPJxlLECpX5JcZ-HkjWd-1043" target="SPJxlLECpX5JcZ-HkjWd-1060" edge="1">
          <mxGeometry relative="1" as="geometry" />
        </mxCell>
        <mxCell id="4Cc7dM-Im1Ju7JLPlPpQ-989" style="edgeStyle=orthogonalEdgeStyle;rounded=0;orthogonalLoop=1;jettySize=auto;html=1;exitX=1;exitY=0.75;exitDx=0;exitDy=0;entryX=0;entryY=0.656;entryDx=0;entryDy=0;entryPerimeter=0;" edge="1" parent="1" source="SPJxlLECpX5JcZ-HkjWd-1043" target="4Cc7dM-Im1Ju7JLPlPpQ-988">
          <mxGeometry relative="1" as="geometry" />
        </mxCell>
        <mxCell id="SPJxlLECpX5JcZ-HkjWd-1043" value="" style="strokeColor=#dddddd;shadow=1;strokeWidth=1;rounded=1;absoluteArcSize=1;arcSize=2;" parent="1" vertex="1">
          <mxGeometry x="445" y="530" width="100" height="60" as="geometry" />
        </mxCell>
        <mxCell id="SPJxlLECpX5JcZ-HkjWd-1044" value="Cloud&#xa;Build" style="dashed=0;connectable=0;html=1;fillColor=#5184F3;strokeColor=none;shape=mxgraph.gcp2.hexIcon;prIcon=container_builder;part=1;labelPosition=right;verticalLabelPosition=middle;align=left;verticalAlign=middle;spacingLeft=5;fontColor=#999999;fontSize=12;" parent="SPJxlLECpX5JcZ-HkjWd-1043" vertex="1">
          <mxGeometry y="0.5" width="44" height="39" relative="1" as="geometry">
            <mxPoint x="5" y="-19.5" as="offset" />
          </mxGeometry>
        </mxCell>
        <mxCell id="SPJxlLECpX5JcZ-HkjWd-1050" style="edgeStyle=orthogonalEdgeStyle;rounded=0;orthogonalLoop=1;jettySize=auto;html=1;" parent="1" source="SPJxlLECpX5JcZ-HkjWd-1049" edge="1">
          <mxGeometry relative="1" as="geometry">
            <mxPoint x="440" y="560" as="targetPoint" />
          </mxGeometry>
        </mxCell>
        <mxCell id="SPJxlLECpX5JcZ-HkjWd-1049" value="github" style="dashed=0;outlineConnect=0;html=1;align=center;labelPosition=center;verticalLabelPosition=bottom;verticalAlign=top;shape=mxgraph.weblogos.github" parent="1" vertex="1">
          <mxGeometry x="110" y="522.5" width="75" height="75" as="geometry" />
        </mxCell>
        <mxCell id="SPJxlLECpX5JcZ-HkjWd-1051" value="trigger build" style="text;html=1;resizable=0;autosize=1;align=center;verticalAlign=middle;points=[];fillColor=none;strokeColor=none;rounded=0;" parent="1" vertex="1">
          <mxGeometry x="360" y="540" width="80" height="20" as="geometry" />
        </mxCell>
        <mxCell id="SPJxlLECpX5JcZ-HkjWd-1054" value="deploy&amp;nbsp;" style="text;html=1;resizable=0;autosize=1;align=center;verticalAlign=middle;points=[];fillColor=none;strokeColor=none;rounded=0;" parent="1" vertex="1">
          <mxGeometry x="585" y="530" width="50" height="20" as="geometry" />
        </mxCell>
        <mxCell id="SPJxlLECpX5JcZ-HkjWd-1057" value="&lt;a style=&quot;box-sizing: border-box; background-color: rgb(255, 255, 255); text-decoration-line: none; transition: color 80ms cubic-bezier(0.33, 1, 0.68, 1) 0s, background-color 0s ease 0s, box-shadow 0s ease 0s, border-color 0s ease 0s; font-family: -apple-system, BlinkMacSystemFont, &amp;quot;Segoe UI&amp;quot;, Helvetica, Arial, sans-serif, &amp;quot;Apple Color Emoji&amp;quot;, &amp;quot;Segoe UI Emoji&amp;quot;; font-size: 16px; text-align: start;&quot; rel=&quot;nofollow&quot; href=&quot;https://darujemejidlo.cz/&quot;&gt;https://darujemejidlo.cz&lt;/a&gt;" style="text;html=1;resizable=0;autosize=1;align=center;verticalAlign=middle;points=[];fillColor=none;strokeColor=none;rounded=0;" parent="1" vertex="1">
          <mxGeometry x="185" y="230" width="180" height="20" as="geometry" />
        </mxCell>
        <mxCell id="SPJxlLECpX5JcZ-HkjWd-1065" style="edgeStyle=orthogonalEdgeStyle;rounded=0;orthogonalLoop=1;jettySize=auto;html=1;exitX=1;exitY=0.5;exitDx=0;exitDy=0;entryX=0;entryY=0.5;entryDx=0;entryDy=0;" parent="1" source="SPJxlLECpX5JcZ-HkjWd-1058" target="EJewP5QsWW_fbqRGyngx-990" edge="1">
          <mxGeometry relative="1" as="geometry">
            <mxPoint x="402.0899999999999" y="270.0799999999999" as="targetPoint" />
          </mxGeometry>
        </mxCell>
        <mxCell id="SPJxlLECpX5JcZ-HkjWd-1058" value="" style="strokeColor=#dddddd;shadow=1;strokeWidth=1;rounded=1;absoluteArcSize=1;arcSize=2;" parent="1" vertex="1">
          <mxGeometry x="440" y="260" width="100" height="60" as="geometry" />
        </mxCell>
        <mxCell id="SPJxlLECpX5JcZ-HkjWd-1059" value="Cloud&#xa;IAM" style="dashed=0;connectable=0;html=1;fillColor=#5184F3;strokeColor=none;shape=mxgraph.gcp2.hexIcon;prIcon=cloud_iam;part=1;labelPosition=right;verticalLabelPosition=middle;align=left;verticalAlign=middle;spacingLeft=5;fontColor=#999999;fontSize=12;" parent="SPJxlLECpX5JcZ-HkjWd-1058" vertex="1">
          <mxGeometry y="0.5" width="44" height="39" relative="1" as="geometry">
            <mxPoint x="5" y="-19.5" as="offset" />
          </mxGeometry>
        </mxCell>
        <mxCell id="l3itrEJ3SxEkXiA3F_dx-993" style="edgeStyle=orthogonalEdgeStyle;rounded=0;orthogonalLoop=1;jettySize=auto;html=1;exitX=0;exitY=0.5;exitDx=0;exitDy=0;" parent="1" source="SPJxlLECpX5JcZ-HkjWd-1060" target="SPJxlLECpX5JcZ-HkjWd-1049" edge="1">
          <mxGeometry relative="1" as="geometry" />
        </mxCell>
        <mxCell id="SPJxlLECpX5JcZ-HkjWd-1060" value="" style="strokeColor=#dddddd;shadow=1;strokeWidth=1;rounded=1;absoluteArcSize=1;arcSize=2;" parent="1" vertex="1">
          <mxGeometry x="435" y="380" width="200" height="60" as="geometry" />
        </mxCell>
        <mxCell id="SPJxlLECpX5JcZ-HkjWd-1061" value="Google Secret Manager" style="dashed=0;connectable=0;html=1;fillColor=#5184F3;strokeColor=none;shape=mxgraph.gcp2.hexIcon;prIcon=cloud_security_command_center;part=1;labelPosition=right;verticalLabelPosition=middle;align=left;verticalAlign=middle;spacingLeft=5;fontColor=#999999;fontSize=12;" parent="SPJxlLECpX5JcZ-HkjWd-1060" vertex="1">
          <mxGeometry y="0.5" width="44" height="39" relative="1" as="geometry">
            <mxPoint x="5" y="-19.5" as="offset" />
          </mxGeometry>
        </mxCell>
        <mxCell id="SPJxlLECpX5JcZ-HkjWd-1063" value="get database password" style="text;html=1;resizable=0;autosize=1;align=center;verticalAlign=middle;points=[];fillColor=none;strokeColor=none;rounded=0;" parent="1" vertex="1">
          <mxGeometry x="635" y="380" width="140" height="20" as="geometry" />
        </mxCell>
        <mxCell id="SPJxlLECpX5JcZ-HkjWd-1066" value="sign-in" style="text;html=1;resizable=0;autosize=1;align=center;verticalAlign=middle;points=[];fillColor=none;strokeColor=none;rounded=0;" parent="1" vertex="1">
          <mxGeometry x="470" y="235" width="50" height="20" as="geometry" />
        </mxCell>
        <mxCell id="SPJxlLECpX5JcZ-HkjWd-1067" value="MysqlDB - db-f1-micro" style="text;html=1;resizable=0;autosize=1;align=center;verticalAlign=middle;points=[];fillColor=none;strokeColor=none;rounded=0;" parent="1" vertex="1">
          <mxGeometry x="945" y="210" width="130" height="20" as="geometry" />
        </mxCell>
        <mxCell id="SPJxlLECpX5JcZ-HkjWd-1068" value="10GB" style="text;html=1;resizable=0;autosize=1;align=center;verticalAlign=middle;points=[];fillColor=none;strokeColor=none;rounded=0;" parent="1" vertex="1">
          <mxGeometry x="1060" y="250" width="50" height="20" as="geometry" />
        </mxCell>
        <mxCell id="5Itg4eLvft31VcyqgWFJ-990" value="&lt;h1 class=&quot;cfc-heading-tag cfc-text-title-3 cfc-heading-no-margins ng-star-inserted&quot; style=&quot;box-sizing: border-box ; border: 0px ; font-weight: 400 ; font-stretch: normal ; font-size: 18px ; line-height: 24px ; font-family: &amp;#34;roboto&amp;#34; ; outline: 0px ; padding: 0px ; vertical-align: baseline ; position: static ; margin: 0px ; bottom: auto ; max-width: none ; overflow-wrap: break-word ; background-color: rgb(255 , 255 , 255)&quot;&gt;&lt;span class=&quot;ng-star-inserted&quot; style=&quot;box-sizing: border-box ; border: 0px ; font-family: inherit ; font-style: inherit ; font-weight: inherit ; margin: 0px ; outline: 0px ; padding: 0px ; vertical-align: baseline&quot;&gt;Serverless VPC access&lt;/span&gt;&lt;/h1&gt;" style="text;html=1;resizable=0;autosize=1;align=center;verticalAlign=middle;points=[];fillColor=none;strokeColor=none;rounded=0;" parent="1" vertex="1">
          <mxGeometry x="910" y="310" width="180" height="30" as="geometry" />
        </mxCell>
        <mxCell id="5Itg4eLvft31VcyqgWFJ-991" value="private IP" style="text;html=1;resizable=0;autosize=1;align=center;verticalAlign=middle;points=[];fillColor=none;strokeColor=none;rounded=0;" parent="1" vertex="1">
          <mxGeometry x="1060" y="270" width="70" height="20" as="geometry" />
        </mxCell>
        <mxCell id="EJewP5QsWW_fbqRGyngx-992" style="edgeStyle=orthogonalEdgeStyle;rounded=0;orthogonalLoop=1;jettySize=auto;html=1;exitX=1;exitY=0.5;exitDx=0;exitDy=0;entryX=0;entryY=0.5;entryDx=0;entryDy=0;" parent="1" source="EJewP5QsWW_fbqRGyngx-990" target="SPJxlLECpX5JcZ-HkjWd-1037" edge="1">
          <mxGeometry relative="1" as="geometry" />
        </mxCell>
        <mxCell id="l3itrEJ3SxEkXiA3F_dx-988" style="edgeStyle=orthogonalEdgeStyle;rounded=0;orthogonalLoop=1;jettySize=auto;html=1;exitX=0.25;exitY=1;exitDx=0;exitDy=0;entryX=1;entryY=0.5;entryDx=0;entryDy=0;" parent="1" source="EJewP5QsWW_fbqRGyngx-990" target="SPJxlLECpX5JcZ-HkjWd-1060" edge="1">
          <mxGeometry relative="1" as="geometry" />
        </mxCell>
        <mxCell id="EJewP5QsWW_fbqRGyngx-990" value="" style="strokeColor=#dddddd;shadow=1;strokeWidth=1;rounded=1;absoluteArcSize=1;arcSize=2;" parent="1" vertex="1">
          <mxGeometry x="730" y="220" width="138" height="140" as="geometry" />
        </mxCell>
        <mxCell id="EJewP5QsWW_fbqRGyngx-991" value="App&#xa;Engine" style="dashed=0;connectable=0;html=1;fillColor=#5184F3;strokeColor=none;shape=mxgraph.gcp2.hexIcon;prIcon=app_engine;part=1;labelPosition=right;verticalLabelPosition=middle;align=left;verticalAlign=middle;spacingLeft=5;fontColor=#999999;fontSize=12;" parent="EJewP5QsWW_fbqRGyngx-990" vertex="1">
          <mxGeometry y="0.5" width="44" height="39" relative="1" as="geometry">
            <mxPoint x="5" y="-19.5" as="offset" />
          </mxGeometry>
        </mxCell>
        <mxCell id="T4ycrljMzfHrjzSj7qJn-988" value="Identity Aware Proxy" style="text;html=1;resizable=0;autosize=1;align=center;verticalAlign=middle;points=[];fillColor=none;strokeColor=none;rounded=0;" parent="1" vertex="1">
          <mxGeometry x="630" y="240" width="120" height="20" as="geometry" />
        </mxCell>
        <mxCell id="l3itrEJ3SxEkXiA3F_dx-992" value="get github password" style="text;html=1;resizable=0;autosize=1;align=center;verticalAlign=middle;points=[];fillColor=none;strokeColor=none;rounded=0;" parent="1" vertex="1">
          <mxGeometry x="510" y="460" width="120" height="20" as="geometry" />
        </mxCell>
        <mxCell id="l3itrEJ3SxEkXiA3F_dx-994" value="push tag" style="text;html=1;resizable=0;autosize=1;align=center;verticalAlign=middle;points=[];fillColor=none;strokeColor=none;rounded=0;" parent="1" vertex="1">
          <mxGeometry x="150" y="390" width="60" height="20" as="geometry" />
        </mxCell>
        <mxCell id="gDKdsuRZ1EJSuCM69G7f-988" value="europe-west3 Frankfurt" style="text;html=1;strokeColor=none;fillColor=none;align=center;verticalAlign=middle;whiteSpace=wrap;rounded=0;" parent="1" vertex="1">
          <mxGeometry x="840" y="170" width="160" height="30" as="geometry" />
        </mxCell>
        <mxCell id="EJewP5QsWW_fbqRGyngx-993" value="Java11 / F2" style="text;html=1;resizable=0;autosize=1;align=center;verticalAlign=middle;points=[];fillColor=none;strokeColor=none;rounded=0;" parent="1" vertex="1">
          <mxGeometry x="750" y="173.33333333333331" width="80" height="20" as="geometry" />
        </mxCell>
        <mxCell id="4Cc7dM-Im1Ju7JLPlPpQ-990" style="edgeStyle=orthogonalEdgeStyle;rounded=0;orthogonalLoop=1;jettySize=auto;html=1;" edge="1" parent="1" source="4Cc7dM-Im1Ju7JLPlPpQ-988">
          <mxGeometry relative="1" as="geometry">
            <mxPoint x="890.1550000000002" y="440" as="targetPoint" />
          </mxGeometry>
        </mxCell>
        <mxCell id="4Cc7dM-Im1Ju7JLPlPpQ-988" value="" style="shape=image;imageAspect=0;aspect=fixed;verticalLabelPosition=bottom;verticalAlign=top;image=data:image/png,iVBORw0KGgoAAAANSUhEUgAAAqYAAAKlCAYAAAAZ7y4xAAAACXBIWXMAAC4jAAAuIwF4pT92AAAgAElEQVR42u3d35WqbHvA4V2CJViCJVhBlgXkgBIswRIsgRJcqYASKMGTnNPBRL+FO7y+6PjnAe4HroNrJXmzZ4ZBkN/ALfz5+fn5AwAAU7MSAAAQpgAAIEwBABCmAAAgTAEAEKYAACBMAQAQpgAAIEwBABCmAAAgTAEAEKYAACBMAQAQpgAAIEwBABCmAAAgTAEAEKYAACBMAQAQpgAAIEwBABCmAAAgTAEAEKYAACBMAQAQpgAAIEwBABCmAAAgTAEAEKYAACBMAQAQpgAAIEwBAECYAgAgTAEAQJgCACBMAQBAmAIAIEwBAECYAgAgTAEAQJgCACBMAQBAmAIAIEwBAECYAgAgTAEAQJgCACBMAQBAmAIAIEwBAECYAgAgTAEAQJgCACBMAQBAmAIAIEwBAECYAgAgTAEAQJgCACBMAQBAmAIAIEwBAECYAgAgTK0EAACEKQAACFMAAIQpAAAIUwAAhCkAAAhTAACEKQAACFMAAIQpAAAIUwAAhCkAAAhTAACEKQAACFMAAIQpAAAIUwAAhCkAAAhTAACEKQAACFMAAIQpAAAIUwAAhCkAAAhTAACEKQAACFMAAIQpAAAIUwAAhCkAAAhTAACEKQAACFMAABCmAAAIUwAAEKYAAAhTAAAQpvDMf//X/24ujhcr6wMAhClMGabbi5+L5mJvnQCAMIWpw/Smvv436wYAhClMHaY3p4u1dQQAwhSmDtObg/lTABCmECFMb/OnhfUFAMIUpg7Tm8r8KQAIU4gQpjel+VMAEKYQIUxvl/fNnwKAMIXJw/TmfLGzLgFAmMLUYdqdP91YpwAgTGHqMO3On7q8DwDCFCYP07/zp9YvAAhTmDpMu/OnW+sZAIQpTB2m3fnTtfUNAMIUpg7Tm6P5UwAQphAhTD3eFACEKYQJ05va/CkAwtRKgAhhenMyfwqAMAUihOmNx5sCIExBmIYI09vtpcyfAiBMQZiGUZk/BUCYgjCNpDR/CoAwBWEahcebAiBMQZiGcp0/3XnNABCmIEwjzZ9uvHYACFMQplF4vCkAwhSEaaj5073XEQBhCsI00vzp1usJgDAFYRpp/nTtdQVAmIIw/fF4UwAQpiBM/z1/WniNARCmIEyjqM2fAiBMQZhGcjJ/CoAwBWEa6vGm5k8BEKYgTCPdXsr8KQDCFIRpqNtLmT8FQJiCMA2jdHkfAGEKwjTU/KltAgBhCsI00vzpzrYBgDAFYerxpgAIUxCm9DiaPwVAmIIwjTR/ure9ACBMQZhGmj/d2m4AEKYgTD3eFABhCsKUHh5vCoAwBWEaav60sC0BIExBmEZRmz8FQJiCMI32eFPzpwAIUxCmcR5vav4UAGEKwtTjTQEQpiBM6WH2FABhCsJUmAIgTEGYIkwBEKYgTIUpAMIUhCnCFABhCsJUmAIgTEGY8nGYtvc9dXN+Zmu7/Z/i4mxdgDAFYZpHmLo5P3MM0u1FdfFzZZ2AMAVhmk+Yujk/cwnS1UV5C1JhCsIUhGm+YXpTXWxsq2QWpYeL5j5KhSkIUxCmeYfpTenyPhkE6e46R9oXpMIUhCkI0/mE6d/5U9stAYN0050jFaYgTEGYzj9Mu/OnbkFFlDnS4ytBKkxBmIIwnWeYdudP3V6KqaJ0/2iOVJiCMAVhurwwvTmaP2Xk2z+d3w1SYQrCFITpMsL0Nn+6t00zYJCuX50jFaYgTEGYLjtMb2rzpwwwR3r4NkiFKQhTEKbLC9Obk/lTEkRp8ckcqTAFYQrCVJj28XhTPp0jrVMGqTAFYQrCVJje5k8L2zsvzpGehghSYQrCFISpML2/vZT5U57NkTZDRqkwBWEKwlSY9j3e1Pwp3TnS89BBKkxBmIIwFaYeb8qjIN2kuP2TMAVhCsJUmKZyfbzpzr6wuMv25dhBKkxBmIIwFabvzJ9u7BOzj9JR5kiFKQhTEKbCNNX8qdtLzS9Id2POkQpTEKYgTIVpyvlTjzedz+2fqghBKkxBmIIwFabfzp+6vVS+c6THSEEqTEGYgjAVpqnmT91eKp8o3U89RypMQZiCMBWmQzuaPw0dpNsoc6TCFIQpCFNhOtb8aWHfCTdHeooepMIUhCkIU2E6lNr8aYg50kMuQSpMQZiCMBWmQzuZP50kSovIc6TCFIQpCFNhOuXl/YP509HmSOscg1SYgjAFYSpMx769lPnT4eZIy5yDVJiCMAVhKkynur2U+dO0c6TNHKJUmIIwBWEqTD3eNM8o3eVw+ydhCsIUhKkwzWr+1L72VpBuoj1GVJiCMAVhKkzn5Dp/urPP/XrZvpxrkApTEKYgTIVpxPnTjX3vX1E6qzlSYQrCFISpMM2Jx5v+5PMYUWEKwhSEqTCdu+v86X7Bt3+qlhSkwhSEKQhTYZrL/Ol2IUF6nSM9LjFIhSkIUxCmwjS3+dP1jKN0v5Q5UmEKwhSEqTCdi1k93nQOjxEVpiBMQZgK0yVrcn+8aTtHehKjwhSEKQhTYToPdW7zp53HiApRYQrCFISpMJ3p403XGURpYY5UmIIwBWEqTJdxeT/k/Gk7R1oJT2EKwhSEqTBd3u2liiBBul7CY0SFKQhTEKbClMCPN13SY0SFKQhTGCtMV+38ntARpjnPn65GDNLd0h4jKkxBmMIUZ04rkSNMc54/HThIN+ZIhSkIUxg3UIt2hk/sCNNc5093A9z+yRypMAVhChNe3hdKwnTxjzf1GFFhCsIU4gTq+uIkcoRpxo6fzJ+2t38yRypMQZhC0PnTWuQI04znT/dv3P7JHKkwBWEKGQTqvj3Iix1hmp03bgElIIUpCFPIaP70KHSEqTBFmIIwhUjzp24vJUyFKcIUhCmEmj91eylhKkwRpiBMIUygHsyfClNhijAFYQqR5k893lSYClOEKQhTCBOoG/OnwlSYIkxBmEKkQN2ZPxWmwhRhCsIUIl3eX/r8qTAVpghTEKYQ7PZSpTAVpsJUmALCFCLdXqoWpsJUmApTQJhClEAtFnR5X5gKU4QpCFPIZP5UmApTYSpMQZgCYeZPT8JUPApTYQrCFIg0f3oWpghTYQrCFIgSqPuZzZ8KU2GKMAVhCpnPnx6FKcJUmIIwBSLNn1bCFGEqTEGYAlECNefHmwpTYYowBWEKMwzUHB9vKkyFKcIUhCnMeP60FKYIU2EKwhSIdHupSpgiTIUpCFMgSqAWwedPhakwRZiCMIWFXd6POn8qTIUpwhSEKSz09lInYYowFaYgTIFI86e1MEWYClMQpkCk+dNGmCJMhSkIUyDS/KkwFabCVJiCMAXCzJ9WwlSYClNhCsIUiDR/ehamwlSYClMQpkCUQN2PNH8qTIUpwhSEKfDS/GkpTIWpMBWmIEyBKIG6GXD+VJgKU4QpCFPg7UDdDTB/KkyFKcIUhCnwcaCmfLypMBWmCFMQpsDXt5cqhakwRZiCMAUi3V6qEqbCFGEKwhSIEqjFh/OnwlSYIkxBmAKD3F7qIEyFKcIUhCkQaf70JEyFKcIUhCkQaf60FqbCFGEKwhSIEqjPHm8qTIUpwhSEKTD6/OlRmApThCkIUyDS/GklTIUpwhSEKRBp/vQsTIUpwhSEKRDmEr8wFaYIUxCmQC7xKkyFqTAFYQogTIWpMBWmIEwBhKkwFaYgTAGEqTAVpsIUhCmAMBWmwhQQpkDMT+4/uDk/wnQuzhdb+zsIUyCfQL2/OT/CNHfNxd7+DcIUyDdQd+3N+UWlMM1ZebGyT4MwBeYze9oIS2GamepiYx8GYQrMc/60FJfCNJM50p39FoQpMP9A3Zg/FaaB50gP9lMQpsDyArUwfypMg82Rru2bIEyBZV/eN38qTKeeI3X7JxCmAP+4vZT5U2E69hxpYf8DYQrwKFC3F7UAFaYDO7j9EwhTgHfmT13eF6apncyRgjAFlhOU13nR0/XSfML5U0EqTL9VmyMFYQosM0x/2rOd1/99leB7rtvYFabC1GNEQZgCvB2mN9fbQRWJvvfW7aWE6RuO5khBmALCtC+orjfU3yb6Gfslz58K05du/2SOFIQpIEx/nQktE13ev86fHoWpML27/ZM5UhCmAC+H6d/500Q/b3GPNxWmHiMKwhQgXZh25093iX7ubinzp8L0X48RNUcKwhTg6zDtzp9uEv78RpjOPkyvc6Qb+xwIU4DUYXpzTDh/WgrT2c6R7uxrIEwBhg7T2/zpPtGybOc4f7rQMG08RhSEKcDYYdqdP011e6liTvOnCwzT0u2fQJgCTBmmN6kfb9oI06zmSN3+CYQpQJgwvfF40+WE6fWyfWF/AmEKEDVMb/OnRaLlvM6f1sI0HHOkIEwBsgjTmzrx/GkjTCd3MkcKwhQgxzDtPt401fzpUZhOojZHCsIUYA5h+vfxpgnnTythOtoc6d4+A8IUYE5h2r29VMr507MwHczRHCkIU4A5h+kQjzfdR5w/zThMK3OkIEwBlhSm3fnTWT7eNMMw9RhREKYAiw7Tv/OniX6vTZT504zC9D+PEbVfgDAFEKb/nD/dJfr9dlPPn2YSpqU5UhCmAML0+fzpOuHv2QjT3jnSjX0BhCmAMH3NMeHtpUph+neOtLAPgDAFEKafzZ/uE/3O2zHnT4OFaeMxooAwBYRpzMebnhcUpqXbPwHCFBCm6Z0SPt70MPMw9RhRQJgCwnQEKR9veppZmDbmSAFhCgjT8edPi0TrY9uOC+QepuZIAWEKCNOJby+Vav402eNNRw7TkzlSQJgCwjSOMuH86TGTMD2bIwWEKSBM417eTzl/WgUN0+sc6d62DAhTQJjGl/LxpttPbi81YJgezZECwhQQpnnOn24SrrNmwjCtzJECwhQQpvOYP01xeX/16uNNE4bpdY50Z7sFhCkgTOc1f5rq8aab3+ZPE4Tpfx4jansFhCkgTOc9f7pNtB53j+ZPvwzT0hwpIEwBYbocVeLHmzYJwrRy+ydAmALCdLmOCW8vVX4YpmePEQWEKSBMGeTxpi+G6d5jRAFhCghTMdqnTjV/CiBMAYRpCqcU86cAwhRAmKaS5PGmAMIUQJimur2UDyYBwhRAmIa6vZT5U0CYAgjTeT3eFECYAgjTVLeXOtiWAGEKIEwjzZ/ubFOAMAUQppHmTze2LUCYAgjTWT3eFECYAsKUVPOne9sZIEwBhGkItjNAmAIIU2EKIEwBYYowBYQpgDAVpgDCFBCmCFNAmAIIU2EKIEwBYYowBYQpgDAVpgDCFBCmCFNAmAIIU2EKIEwBYYowBYQpgDAVpgDCFBCmCFNAmAIIU2EKIEwBYYowBYQpgDAVpgDCFBCmCFNAmAIIU2EKIEwBYYowBYQpgDAVpgDCFBCmCFNAmAIIU2EKIEwBYYowBYQpgDAVpgDCFBCmwlSYAsIUQJgKUwBhCiBMhSkgTAGEqTAFEKYAwlSYAghTQJgKUwBhCiBMhSmAMAWEqTAFEKYAwlSYAghTQJgiTAFhCiBMhSmAMAWEKcIUEKYAwlSYAghTQJgiTAFhCiBMhSmAMAWEKcIUEKYAwlSYAghTQJgiTAFhCiBMhSmAMAWEKcIUEKYAwlSYAghTQJgiTAFhCiBMhSmAMAWEKcIUEKYAwlSYAghTQJgiTAFhCiBMhSmAMAWWFaYrcSpMAWEKEClQ1xeVkBSmgDAFiBKo24uzoBSmgDAFiBKo+4tGWApTQJgCRJk/PYpLYQoIU4AogboxfypMAWEKEClQd+ZPhSkgTAEiBerB/KkwBYQpQJQ4vd5eqhSewhQQpgBRAnVr/lSYAsIUIFKgFuZPhSkgTAGixKnHmwpTQJgChJs/PYlSYQoIU4BI86e1MLUtAMIUIEqgLvrxprYBQJgCxJs/PQpTAGEKEGn+tBKmAMIUINL86VmYAghTgCiBOvvHm3qdAWEKkNf8aSlMAYQpQJRA3cxx/tRrCwhTgHwDdTen+VOvKSBMAfK/vD+L+VOvJyBMAeYRqOvc50+9joAwBZhXoGb7eFOvHyBMAeYZqEVul/e9boAwBZj//KkwBRCmAGHmT0/CFECYAkSaPz0LUwBhChAlUPcR50+9NoAwBVju/OlRmAIIU4BI86eVMAUQpgBRAnXyx5t6HQBhCkA3UCd7vKn1DwhTAPrmT0thCiBMAaIE6nbM+VPrHBCmAPwWqMUY86fWNSBMAXj18v6g86fWMyBMAXgnUAd7vKn1CwhTAD6dP62FKSBMAYg0f9oIU0CYAhBp/lSYAsIUgDDzp5UwBYQpAJHmT8/CFBCmAEQJ1P0786fWGSBMARh6/rQUpoAwBSBKoG5+mz+1ngBhCsCYgbp7NH9q/QDCFIApAvVfjze1XgBhCsBUcbruzp9aJ4AwBWDqQL3eXqqyLgBhCgAAwhQAAGEKAADCFAAAYQoAAMIUAABhCgAAwhQAAGEKAADCFAAAYQoAAMIUAABhCgAAwhQAAGEKAADCFAAAYQoAAMIUAABhCgAAwhQAAGEKAADCFAAAYQoAAMIUAABhCgAAwhQAAGEKAADClOw3oj9/Nhfbi5X1AQAI03yj7hp0P3e2v3zNW/9+hN+h6ixLc1F88D1e+p2u3/vi1P6cnx7ndnmOF2vbGAAIU5YbpleH1GF6PRt7UT+I0V62LwAQpgjTIcL0rSi9nlG1fQGAMEWYJg3T9vJ9b3y2P/umG6+V7QsAhCnC9JD4+5c9v/P+yb9fXz+QZfsCAGHKxGHazmNev+/uGol3Xvr0fPvv9ndfW7T/ff1qmLaRuLv7HqsHP69r9eT711+s79u66f5e+2frvPM1fcu27n7Yq3OHgm03jtv/Xvy2HgBAmDKbMH1wdrHP8cmn3psXvn7zJBzLNr7OD762vo+yX36nf33/D4P0t3Vz7jsT2/Ma3QK9uh8buFvWcxvl9ZNRhMJ+AADCdK5henzjA0LHF5bl10+894TjK8ovwvTwQZTWXyzbtidge9fHh+tia18AAGEaNUz3PZe2u55F3P7NKFp/cLa1SRCm5xHDtPwmFl8J9i/Xxcm+AADCNGqYfhNRt5nOTc/P2n97yfx+dvKXGGvaKDy+cNZ1yDBtekYJdp2zqX3jC+WLr1FzN1Pbty6q9jVZtU5ubQUAwnT2YfrCzzs/+aDSRwHY9+Gk+9nJvigeI0zbDx09nI99MgJRvfAaHXpmZavfZnn7vp99AQCE6RLDtHojTJs2vjaffs9XY2zAMH0pAtszmu+E6XqodQEAwpRIYVr23Oap69cwfXC7p8MvZ0yPv1yyLm+XwGcYptt3wnTISAcAYcpcPpW/eXKbpt7L0R98ev0kTIUpAAhTYfpbxJ3fHAPoC6ei5wM693bCVJgCgDAVpr3//sEHfapXL+U/+fBQ+cuZ1rHDtJp6xlSYAoAwFabPw3T77F6hiT95P2WYNq8+zvPVDy71zO4KUwAQpsJ0qDBt73H67MNPm0efwO+ZPR0zTA8PHmta9Dx84PaBr+OT7326e979tuc+pqdEYVr23FKqFKYAIEznHqbrBwFXPflQ06NP5d++7tHXFiOG6fqDW2jVna9/NC9b9wRp3+/3TZi+8vM8+QkAhKkPP73w1KJHt45ajRWmT86avvqY0PWTAO1TfXrp/cNHku7sCwAgTOcYppsnEdb0nD3shmnzYpQWqecqX7w36+7N8F7frZdXovHYc+l9yDDd2w8AQJhGCdNVz5zk6oWYffjv2zOE+zZCb5/KLzrPau9+7brnU/hF+zVl53L+3+/x4JP7D7/no9/znd+p598e2oi8Ld+pc+eB7ZMnM216vvb2u61ffY3enDG9LdfpblnX9gEAEKYw1B8aH99zFQCEqZUAwhQAhCkIUwBAmIIwBQBhCsIUABCmMHSYNu3/LH+79RcAIEwBABCmAAAgTAEAEKYAACBMAQAQpgAke9P+82d7UVxvRdaqepw6//99+zUb6w8QpgB8E6LrNjDru3vkfqpub2V2jdu1dQwIUwBeOTNaJYrRZw7WNyBMAegL0lV7Kf5nJDvrHRCmANxH6aZ9ctjPiLbWPSBMuZ8fWzTbAt4LJonSq5X1DwhTunNkP0tnW8Dl+0mi1L4HCFOEqYMj/ON9oJpo36usf0CYIkyFKUR4Dzh5DQBhijAVpjD12VK3igKEKcJUmMI/PvA05b5XeB0AYYowFaZw3f+PE+97bhUFCFOEqTCF/+z/54n3vbXXARCmCFNhin1/lXg/atp51VN7f+Cy/b+vavsdIEwRpsIUht7361cvybcxfP25ex98AoQpwlSYwm3f3yeKUk9uAoQpwlSYwlf7/sGMKIAwFabCFCLs++W3Z0utR0CYIkyFKaTY97+9sX5pPQLCFGEqTCFCmPrwEiBMGeSWMduBJfnU75BsCwhTYQpgJSzjAPhtmFbWIwhTAGGKMAVhKkwBYYowFaYgTAGEKcIUhKkwBYQpwlSYgjAFEKYIUxCmwhQQpgjTiGF6fezi3e2lDne6/7/Vgl7X663GdoGXrRjw+2/uXveiZ7soIm8bSwnTu9dg98v+u17Ye3PYffiF/W7feQ13U+1jd7dc7G5f+/a/bXSAMEWYfvvGt28f11h/s8wXxzZOVjN7Pbft+mna33UbaNmuB4ZT53VYffnHyKF9Hasvt4euc/v9bgfUlTBNF1md16v58t7Jp1u4zvA9eXf3SNp1sOVbd/7Ye/e1PLfbwHqg977b8eHd/ec05B/LCFNmFKbtm+CxfUMb6ulS1VCR2r55f7JM+zd/TvFgHW0HWLbtm0Gyf3fZeg6CxwSxNvn2kdET16pE++4+4R8NjzRtjOwGeg/6dD/ZvbmfjLUPrz4M0TLx+/Dxm32qPVFxSPy+cM7pLLUwRZiOGKbtX79jh0jTvtGtAhzUDi8ezA6/nLEoAi/bswPu0H+MTLJ9ZBSmhwRn7adY7vMM9+HUYboL9EdF/c7l9M7Z5Gbg5Sr1gTBFmHbfEE8TH5TPqS4RfnFQq375vvsX35wPAyxb+eWB9tezwsGjrXn3jPYSwrTdd8tAr1Ex8T6caj9JvQ+Xv1zdqCd4rda/nBkdI0bFqTBFmPb+NdzM4axRgoNa/eYl+4eXy8aK5g+W7TDgjOUoB64PLovOMkzb174J+HtU3549Db6ffLJsTc8Z7qlPBtQPRhvq3I8BCFMyDdMv3vxD/9X8ze/Vc9agSvn6fLFsfQe2OvEZpVMmAVe/Ez4ZhWnxxu9UZnCGexNgH/50POk0wLJtPgjkwSPwzTPJY1lrBWHKwsI0gwNbOVFwr9s36uMQr8+3B9x22cpoyxZ5+8jod9rOZN/9Ok6/3BZX9pO3XqOIZ91PWkGYsqAwbf9qz+FNcz/BQe2Y4o068LLVv4x15HRQ3S8tTDOK0q/iNMB+cl5ImEbmrKkwZQlh2l5OyunNaZPjiEKmy7bJMHpWMwrTzQsfvssxMM4fzAXbhznqBWHKMsL0nNmbU5VjmD76az/yATeziHvn9kBZ/C4z+4Pyq0uzwpRnV3cQpswkTDN+Q91m+HtuAy/b5sm6q+d21nQmYVrNIDS29mGGfDABwpSMwrT9MECT6ZtTlWGY7nI74Gb2yfyXP82ee5i2nyyfQ2SchSlDnpRAmJJXmBaZv0GtMzuoHQIvWzGzs+qnGYRpPfOzpW89MjTIdrgXpvnf1xphStwwTXmJtmk/+brru9TSnp3dpvqE+7uf0BemX908vPjlQyxV+8nwQ/thnG3H6snTibbt9nIY4Kxs88Jl8Fd8/UnuN37WvePIs6Xn9nU49DgmWh8fz5rah/EBKGHKjMO0DYOkN2R+c4TgOOQZpYAHjibw2Zbm2VmrNiCbNkwObUxuBtgHVonXxSbBMlXRzu4k2ne6r/3hzasPuwHO2K4z2Yd3wjS/D78iTMkjTFPdZqb44ndOMUqwCh6m59/CfeJlKwLuC6nmJ3czDdNUd9Eov/kgSecPllHeR6beT4Ltw90/FIvOFYpi4vvanjtXT7pXTvYJr9AJU2HKTMM0xaXTfYAD/zZomL4cfZGXbcL94fAnwCxatDBNeKWjTLQ8m0RxerIPv7Q8xxcfurD5M84HW5v2WFK8eNa7FKbCFGE61FmXOuGBbfAD/4gHtebdGBlx2cIH6d1l/cln0QKGaRHtwJ7oDPc52D5cBNmHb7P70R4qcvr0vSTKsQdhSqAwTXTQLxL+7uehz/yMcFBr3p21zWHZJt4nTlMHWMAwTbGtbAd4rVLMnK7sw/+/7X77Hpv4cwQfzSMPta40gzBlfmG6/TPSbOeLy1MO/XsPfFArv3mzHmHZVpnuEwdhmnx56oFeq93QwRx5P0m4bGXKPxzGmrEde1vRDMIUYfrxTbFHeFM/Txh/dYqDyEDLVg3xyXlhmn2YHgO/hxUT7ScR9uHzt2ciB3pNjgMs01aYClOEabgDfsq5uQnir0nxwa8Bl62YyT6xE6bJ3yd2A75e9ZDrKvJ+Eu09NeH2shWmCFNhusQw3WYUpqfUl8YTXwZczWif2ArT+KEx1rqKvJ8IU2EqTBGmwnTsMG2GOqhHXjZhKkxHmhUfI0wj78PCVJgKU4SpMI1x77zIyyZMhemI2/HBPixMhakwRZgKUwc1YSpMhakwFaYIU7IN01CEqTAVpsLUPixMEaYIU2EqTIWpMBWmwlSYClOEqTAVpsJUmApT+7AwRZgiTIWpML0t++Z6T9f2ed5VgntZJr15ujAVpsJUmCJMEabCdMZh2j6D+9g+rSbytiFMhakwFaYIU4SpMJ1jmF5vSt4GaS7bhjAVpsJUmCJMEabCdG5h2l6yP2e2bQhTYSpMhSnCFGEqTOcUpm2UNhluG8JUmApTYYowRZgK07mEaXv5vsl02xCmwlSYClOEKcJUmM4oTE8ZbxvCVJgKU2GKMEWYCtOZHNS2mW8bwlSYClNhijBFmArTmRzUTsJUmApTYSpMEabCVJgK00mXrZ0t/RGmwlSYClNhijAVptHDtMpw/TqovbdMhTAVpsJUmApThKkwFabCNEKYpryRftMG3rtqYdFAb94AAAWASURBVCpM7cPCVJgKU4SpMBWmVYJt8hq36wkPYMJUmApTYYowRZgK0xmEaTN1kAnT7ML0JEyFqTAVpghTYSpMq2DbYxPkACZMxw3TSpgKU2EqTBGmwlSYRgvTkzAdLEy/PZO9H3A7PgtTYSpMhSnC9JMw3UY4IyZMYy5bgu3jIEwHC9Nvl6ccaBteDx1B9mFhKkyFKcL0mbUwFabCdPQwPUX8o/J6JlaYClNhKkwRpp+GaYqbp++FqTAVpqOHaYqHYxQBL+P/2IeFqTAVpiw0TBPNqp2F6WzDdPPtbaKE6WBhmuJqx3XfXwWL5do+LEyFqTBl2WGa5D6VE6yn1SdjBA5qo26PlTAdLExTPSq2ThGnCZ8QdrQPC1NhKkxZdpgeEh1QDiOsm227vNWnn/p2UBt9e1x/GV+HBGf1ZxemCf+ovJ053X3xGpUJnw62sw8LU2EqTFl2mG4SHlTOqebW2uXa3YXo1x/gcFAbfWaw+vCAlTJ25hqm+4Tr6Lb/7l/48NGq3TfLxD+/sQ8LU2EqTFl4mKb6wELfcrRv0of2DajPrvNvyvZrzkOekXNQm+SsXN1e6l09OUAV7TbQDLEtzjRMVwOsq/szqVVHPfDPK+3DwlSYClOEacrL+VPYCdNBw3SIbaMeKEAXFabtcpUZ77sf/ZFpHxamwlSYMv8wXY0cCikdhOmgYbqdQfDMOUzXM4nS0j4sTIWpMEWYzuGsaSVMBz+oNcI0ZpjO4IrHbWRgbR8WpsJUmCJM78+annM8qAnTwQ9qpTANHaa57rsfPaTDPixMhakwZQFhmvllW2dbhj2obYRp3DDtvEY5ntl2yzdhKkyFKcJ01FvQhPoAlIPax8t2Eqbh7/NbZPa6fHRzf/uwMBWmwpQFhWmml26PDmqDL9s641nTRYRpZnH68ROn7MPCVJgKUxYWphmeOa0c1IZdtiDRUwvTWVzWL795DKp9WJgKU2HKAsO088aRxYcqHNSGD9MJz6ZX7RnbQpi+9YGoaOMXTYonw9mHhakwFaYsNEw7B7iot6O5RvPxeobIQW2cMB359kRV94D4xZOOFhemneXeBfnj8quzpPZhYSpMhSnCtG/G8BDgEuHtUacbB7VpwnTgs+lNGzGbBz+3FqYfB2o1wRnS47uPDbYPC1NhKkyJFabVl44jHeTKEc7EnNvLkYdUb4zt5eCQ6zfysj05m75PsB3cYnT3ws/cT7Fe2sD65rUpgry/rDvrcKh99qXX0j483rIlOK5sBlimzbfLpRmEKTw60G3beCzbN4z6jYPY7U2mbL9HMcRf54zygZtD+1qef/kAU9V5rTfW36Sv27YN1UNnX3zlqkh9t9/uUp8ZBYQpAAAIUwAAhCkAAAhTAACEKQAACFMAAIQpAAAIUwAAhCkAAAhTAACEKQAACFMAAIQpAAAIUwAAhCkAAAhTAACEKQAACFMAAIQpAAAIUwAAhCkAAAhTAACEKQAACFMAALASAAAQpgAAIEwBABCmAAAgTAEAEKYAACBMAQAQpgAAIEwBABCmAAAgTAEAEKYAACBMAQAQpgAAIEwBABCmAAAgTAEAEKYAACBMAQAQpgAAIEwBABCmAAAgTAEAEKYAACBMAQAQpgAAIEwBABCmAAAgTAEAEKYAACBMAQAQpgAAIEwBAECYAgAgTAEAQJgCACBMAQBAmAIAIEwBAECYAgAgTAEAQJgCACBMAQBAmAIAIEwBAECYAgAgTAEAQJgCACBMAQBAmAIAIEwBAECYAgAgTAEAQJgCACBMAQBAmAIAIEwBAECYAgAgTAEAQJgCACBMAQBAmAIAIEwBAECYAgAgTK0EAACEKQAACFMAAIQpAAAIUwAAhCkAAAhTAACEKQAACFMAADLwf/S9SI8oXOViAAAAAElFTkSuQmCC;" vertex="1" parent="1">
          <mxGeometry x="810" y="470" width="160.31" height="160" as="geometry" />
        </mxCell>
        <mxCell id="4Cc7dM-Im1Ju7JLPlPpQ-991" value="Provision infra" style="text;html=1;strokeColor=none;fillColor=none;align=center;verticalAlign=middle;whiteSpace=wrap;rounded=0;" vertex="1" parent="1">
          <mxGeometry x="900" y="440" width="60" height="30" as="geometry" />
        </mxCell>
      </root>
    </mxGraphModel>
  </diagram>
</mxfile>
